<svg xmlns="http://www.w3.org/2000/svg" viewBox="0 0 160 160" width="160" height="160" fill="none">
  <!-- Sanctuary Classic Theme Archive Seal -->
  <defs>
    <radialGradient id="classicShine" cx="50%" cy="30%" r="70%">
      <stop offset="0%" stop-color="#66A3BF" stop-opacity="0.35"/>
      <stop offset="60%" stop-color="#3368A0" stop-opacity="0.14"/>
      <stop offset="100%" stop-color="#1E293B" stop-opacity="0.25"/>
    </radialGradient>
  </defs>
  <circle cx="80" cy="80" r="74" stroke="#3368A0" stroke-width="1.25" stroke-dasharray="3 2" opacity="0.85"/>
  <circle cx="80" cy="80" r="68" stroke="#3368A0" stroke-width="1" opacity="0.45"/>
  <circle cx="80" cy="80" r="60" fill="url(#classicShine)" stroke="#3368A0" stroke-width="1.5"/>
  <path id="classicTop" d="M 28 80 A 52 52 0 0 1 132 80" fill="none"/>
  <path id="classicBottom" d="M 132 80 A 52 52 0 0 1 28 80" fill="none"/>
  <text font-family="ui-monospace, monospace" font-size="7.5" font-weight="600" letter-spacing="0.24em" fill="#1E293B">
    <textPath href="#classicTop" startOffset="50%" text-anchor="middle">THE COMMONS ARCHIVE</textPath>
  </text>
  <text font-family="ui-monospace, monospace" font-size="6.5" font-weight="600" letter-spacing="0.22em" fill="#8E9CA8">
    <textPath href="#classicBottom" startOffset="50%" text-anchor="middle">LITTERA SCRIPTA MANET</textPath>
  </text>
  <circle cx="80" cy="80" r="32" stroke="#3368A0" stroke-width="1.1" opacity="0.5"/>
  <polygon points="80,54 87,73 106,80 87,87 80,106 73,87 54,80 73,73" fill="#3368A0"/>
  <polygon points="80,63 84,76 97,80 84,84 80,97 76,84 63,80 76,76" fill="#FAF8F5"/>
  <circle cx="80" cy="80" r="3.5" fill="#C94A4A"/>
</svg>
