<svg xmlns="http://www.w3.org/2000/svg" viewBox="0 0 160 160" width="160" height="160" fill="none">
  <!-- Midnight Basalt Theme Archive Seal -->
  <defs>
    <radialGradient id="midnightShine" cx="50%" cy="30%" r="70%">
      <stop offset="0%" stop-color="#D49B55" stop-opacity="0.35"/>
      <stop offset="60%" stop-color="#B37D3E" stop-opacity="0.16"/>
      <stop offset="100%" stop-color="#181716" stop-opacity="0.35"/>
    </radialGradient>
  </defs>
  <circle cx="80" cy="80" r="74" stroke="#D49B55" stroke-width="1.25" stroke-dasharray="3 2" opacity="0.85"/>
  <circle cx="80" cy="80" r="68" stroke="#D49B55" stroke-width="1" opacity="0.45"/>
  <circle cx="80" cy="80" r="60" fill="url(#midnightShine)" stroke="#D49B55" stroke-width="1.5"/>
  <path id="midnightTop" d="M 28 80 A 52 52 0 0 1 132 80" fill="none"/>
  <path id="midnightBottom" d="M 132 80 A 52 52 0 0 1 28 80" fill="none"/>
  <text font-family="ui-monospace, monospace" font-size="7.5" font-weight="600" letter-spacing="0.24em" fill="#EDE8DF">
    <textPath href="#midnightTop" startOffset="50%" text-anchor="middle">THE COMMONS ARCHIVE</textPath>
  </text>
  <text font-family="ui-monospace, monospace" font-size="6.5" font-weight="600" letter-spacing="0.22em" fill="#A39B8F">
    <textPath href="#midnightBottom" startOffset="50%" text-anchor="middle">LITTERA SCRIPTA MANET</textPath>
  </text>
  <circle cx="80" cy="80" r="32" stroke="#D49B55" stroke-width="1.1" opacity="0.5"/>
  <polygon points="80,54 87,73 106,80 87,87 80,106 73,87 54,80 73,73" fill="#D49B55"/>
  <polygon points="80,63 84,76 97,80 84,84 80,97 76,84 63,80 76,76" fill="#181716"/>
  <circle cx="80" cy="80" r="3.5" fill="#F5C589"/>
</svg>
